0
SECTION
2
HEADER
9
$INSUNITS
70
4
9
$ACADVER
1
AC1014
9
$HANDSEED
5
FFFF
0
ENDSEC
0
SECTION
2
TABLES
0
TABLE
2
VPORT
5
8
100
AcDbSymbolTable
0
ENDTAB
0
TABLE
2
LTYPE
5
5
100
AcDbSymbolTable
0
LTYPE
5
14
100
AcDbSymbolTableRecord
100
AcDbLinetypeTableRecord
2
BYBLOCK
70
0
0
LTYPE
5
15
100
AcDbSymbolTableRecord
100
AcDbLinetypeTableRecord
2
BYLAYER
70
0
0
ENDTAB
0
TABLE
2
LAYER
5
2
100
AcDbSymbolTable
70
2
0
LAYER
5
50
100
AcDbSymbolTableRecord
100
AcDbLayerTableRecord
2
0
70
0
6
CONTINUOUS
0
ENDTAB
0
TABLE
2
STYLE
5
3
100
AcDbSymbolTable
70
1
0
STYLE
5
11
100
AcDbSymbolTableRecord
100
AcDbTextStyleTableRecord
2
STANDARD
70
0
0
ENDTAB
0
TABLE
2
VIEW
5
6
100
AcDbSymbolTable
70
0
0
ENDTAB
0
TABLE
2
UCS
5
7
100
AcDbSymbolTable
70
0
0
ENDTAB
0
TABLE
2
APPID
5
9
100
AcDbSymbolTable
70
2
0
APPID
5
12
100
AcDbSymbolTableRecord
100
AcDbRegAppTableRecord
2
ACAD
70
0
0
ENDTAB
0
TABLE
2
DIMSTYLE
5
A
100
AcDbSymbolTable
70
1
0
ENDTAB
0
TABLE
2
BLOCK_RECORD
5
1
100
AcDbSymbolTable
70
1
0
BLOCK_RECORD
5
1F
100
AcDbSymbolTableRecord
100
AcDbBlockTableRecord
2
*MODEL_SPACE
0
BLOCK_RECORD
5
1B
100
AcDbSymbolTableRecord
100
AcDbBlockTableRecord
2
*PAPER_SPACE
0
ENDTAB
0
ENDSEC
0
SECTION
2
BLOCKS
0
BLOCK
5
20
100
AcDbEntity
100
AcDbBlockBegin
2
*MODEL_SPACE
0
ENDBLK
5
21
100
AcDbEntity
100
AcDbBlockEnd
0
BLOCK
5
1C
100
AcDbEntity
100
AcDbBlockBegin
2
*PAPER_SPACE
0
ENDBLK
5
1D
100
AcDbEntity
100
AcDbBlockEnd
0
ENDSEC
0
SECTION
2
ENTITIES
0
LINE
5
100
100
AcDbEntity
8
0
100
AcDbLine
10
211.20000000000002
20
0
30
0
11
135
21
0
31
0
0
LINE
5
101
100
AcDbEntity
8
0
100
AcDbLine
10
135
20
0
30
0
11
135
21
20
31
0
0
LINE
5
102
100
AcDbEntity
8
0
100
AcDbLine
10
135
20
20
30
0
11
211.20000000000002
21
20
31
0
0
LINE
5
103
100
AcDbEntity
8
0
100
AcDbLine
10
211.20000000000002
20
20
30
0
11
211.20000000000002
21
0
31
0
0
LWPOLYLINE
5
104
100
AcDbEntity
8
0
100
AcDbPolyline
90
8
70
1
43
0.0
10
151.02499999999998
20
-2.5249999999999928
42
-0.41421356237309503
10
151.52500000000001
20
-3.0249999999999999
10
151.52500000000001
20
-16.024999999999999
42
-0.41421356237309503
10
151.02499999999998
20
-16.525000000000002
10
138.02500000000001
20
-16.525000000000006
42
-0.41421356237309503
10
137.52500000000001
20
-16.024999999999999
10
137.52500000000001
20
-3.0249999999999999
42
-0.41421356237309503
10
138.02500000000001
20
-2.5249999999999999
0
LWPOLYLINE
5
105
100
AcDbEntity
8
0
100
AcDbPolyline
90
8
70
1
43
0.0
10
170.07499999999999
20
-2.5249999999999928
42
-0.41421356237309503
10
170.57500000000002
20
-3.0249999999999999
10
170.57500000000002
20
-16.024999999999999
42
-0.41421356237309503
10
170.07499999999999
20
-16.525000000000002
10
157.07499999999999
20
-16.524999999999991
42
-0.41421356237309503
10
156.57500000000002
20
-16.024999999999999
10
156.57499999999999
20
-3.0249999999999999
42
-0.41421356237309503
10
157.07499999999999
20
-2.5249999999999999
0
LWPOLYLINE
5
106
100
AcDbEntity
8
0
100
AcDbPolyline
90
8
70
1
43
0.0
10
189.125
20
-2.5250000000000283
42
-0.41421356237309503
10
189.625
20
-3.0249999999999999
10
189.62500000000003
20
-16.024999999999999
42
-0.41421356237309503
10
189.125
20
-16.524999999999999
10
176.125
20
-16.525000000000006
42
-0.41421356237309503
10
175.625
20
-16.024999999999999
10
175.625
20
-3.0249999999999999
42
-0.41421356237309503
10
176.125
20
-2.5249999999999999
0
LWPOLYLINE
5
107
100
AcDbEntity
8
0
100
AcDbPolyline
90
8
70
1
43
0.0
10
208.17499999999998
20
-2.5249999999999928
42
-0.41421356237309503
10
208.67500000000001
20
-3.0249999999999999
10
208.67500000000001
20
-16.024999999999999
42
-0.41421356237309503
10
208.17499999999998
20
-16.524999999999999
10
195.17499999999998
20
-16.52499999999997
42
-0.41421356237309503
10
194.67500000000001
20
-16.024999999999999
10
194.67499999999998
20
-3.0249999999999999
42
-0.41421356237309503
10
195.17499999999998
20
-2.5249999999999999
0
LINE
5
108
100
AcDbEntity
8
0
100
AcDbLine
10
135
20
-123.825
30
0
11
211.20000000000002
21
-123.825
31
0
0
LINE
5
109
100
AcDbEntity
8
0
100
AcDbLine
10
135
20
0
30
0
11
135
21
-123.825
31
0
0
LINE
5
110
100
AcDbEntity
8
0
100
AcDbLine
10
211.20000000000002
20
0
30
0
11
211.20000000000002
21
-123.825
31
0
0
LWPOLYLINE
5
111
100
AcDbEntity
8
0
100
AcDbPolyline
90
8
70
1
43
0.0
10
208.17499999999998
20
-31.099999999999994
42
-0.41421356237309503
10
208.67500000000001
20
-31.600000000000001
10
208.67500000000001
20
-44.600000000000001
42
-0.41421356237309503
10
208.17499999999998
20
-45.100000000000009
10
195.17499999999998
20
-45.099999999999973
42
-0.41421356237309503
10
194.67500000000001
20
-44.600000000000001
10
194.67499999999998
20
-31.600000000000001
42
-0.41421356237309503
10
195.17499999999998
20
-31.100000000000001
0
LWPOLYLINE
5
112
100
AcDbEntity
8
0
100
AcDbPolyline
90
8
70
1
43
0.0
10
189.125
20
-31.10000000000003
42
-0.41421356237309503
10
189.625
20
-31.600000000000001
10
189.62500000000003
20
-44.600000000000001
42
-0.41421356237309503
10
189.125
20
-45.100000000000009
10
176.125
20
-45.100000000000009
42
-0.41421356237309503
10
175.625
20
-44.600000000000001
10
175.625
20
-31.600000000000001
42
-0.41421356237309503
10
176.125
20
-31.100000000000001
0
LWPOLYLINE
5
113
100
AcDbEntity
8
0
100
AcDbPolyline
90
8
70
1
43
0.0
10
170.07499999999999
20
-31.099999999999994
42
-0.41421356237309503
10
170.57500000000002
20
-31.600000000000001
10
170.57500000000002
20
-44.600000000000001
42
-0.41421356237309503
10
170.07499999999999
20
-45.100000000000009
10
157.07499999999999
20
-45.099999999999987
42
-0.41421356237309503
10
156.57500000000002
20
-44.600000000000001
10
156.57499999999999
20
-31.600000000000001
42
-0.41421356237309503
10
157.07499999999999
20
-31.100000000000001
0
LWPOLYLINE
5
114
100
AcDbEntity
8
0
100
AcDbPolyline
90
8
70
1
43
0.0
10
151.02499999999998
20
-31.099999999999994
42
-0.41421356237309503
10
151.52500000000001
20
-31.600000000000001
10
151.52500000000001
20
-44.600000000000001
42
-0.41421356237309503
10
151.02499999999998
20
-45.100000000000009
10
138.02500000000001
20
-45.100000000000009
42
-0.41421356237309503
10
137.52500000000001
20
-44.600000000000001
10
137.52500000000001
20
-31.600000000000001
42
-0.41421356237309503
10
138.02500000000001
20
-31.100000000000001
0
LWPOLYLINE
5
115
100
AcDbEntity
8
0
100
AcDbPolyline
90
8
70
1
43
0.0
10
151.02499999999998
20
-50.149999999999999
42
-0.41421356237309503
10
151.52500000000001
20
-50.650000000000006
10
151.52500000000001
20
-63.650000000000006
42
-0.41421356237309503
10
151.02499999999998
20
-64.150000000000006
10
138.02500000000001
20
-64.150000000000006
42
-0.41421356237309503
10
137.52500000000001
20
-63.650000000000006
10
137.52500000000001
20
-50.650000000000006
42
-0.41421356237309503
10
138.02500000000001
20
-50.150000000000006
0
LWPOLYLINE
5
116
100
AcDbEntity
8
0
100
AcDbPolyline
90
8
70
1
43
0.0
10
170.07499999999999
20
-50.149999999999999
42
-0.41421356237309503
10
170.57500000000002
20
-50.650000000000006
10
170.57500000000002
20
-63.650000000000006
42
-0.41421356237309503
10
170.07499999999999
20
-64.150000000000006
10
157.07499999999999
20
-64.149999999999991
42
-0.41421356237309503
10
156.57500000000002
20
-63.650000000000006
10
156.57499999999999
20
-50.650000000000006
42
-0.41421356237309503
10
157.07499999999999
20
-50.150000000000006
0
LWPOLYLINE
5
117
100
AcDbEntity
8
0
100
AcDbPolyline
90
8
70
1
43
0.0
10
189.125
20
-50.150000000000034
42
-0.41421356237309503
10
189.625
20
-50.650000000000006
10
189.62500000000003
20
-63.650000000000006
42
-0.41421356237309503
10
189.125
20
-64.150000000000006
10
176.125
20
-64.150000000000006
42
-0.41421356237309503
10
175.625
20
-63.650000000000006
10
175.625
20
-50.650000000000006
42
-0.41421356237309503
10
176.125
20
-50.150000000000006
0
LWPOLYLINE
5
118
100
AcDbEntity
8
0
100
AcDbPolyline
90
8
70
1
43
0.0
10
208.17499999999998
20
-50.149999999999999
42
-0.41421356237309503
10
208.67500000000001
20
-50.650000000000006
10
208.67500000000001
20
-63.650000000000006
42
-0.41421356237309503
10
208.17499999999998
20
-64.150000000000006
10
195.17499999999998
20
-64.149999999999977
42
-0.41421356237309503
10
194.67500000000001
20
-63.650000000000006
10
194.67499999999998
20
-50.650000000000006
42
-0.41421356237309503
10
195.17499999999998
20
-50.150000000000006
0
LWPOLYLINE
5
119
100
AcDbEntity
8
0
100
AcDbPolyline
90
8
70
1
43
0.0
10
208.17499999999998
20
-69.200000000000003
42
-0.41421356237309503
10
208.67500000000001
20
-69.700000000000003
10
208.67500000000001
20
-82.700000000000017
42
-0.41421356237309503
10
208.17499999999998
20
-83.200000000000003
10
195.17499999999998
20
-83.199999999999989
42
-0.41421356237309503
10
194.67500000000001
20
-82.700000000000017
10
194.67499999999998
20
-69.700000000000003
42
-0.41421356237309503
10
195.17499999999998
20
-69.200000000000003
0
LWPOLYLINE
5
120
100
AcDbEntity
8
0
100
AcDbPolyline
90
8
70
1
43
0.0
10
194.67500000000001
20
-111.27500000000001
10
194.67500000000001
20
-98.275000000000006
42
-0.41421356237309503
10
195.17499999999998
20
-97.77500000000002
10
208.17499999999998
20
-97.775000000000006
42
-0.41421356237309503
10
208.67500000000001
20
-98.275000000000006
10
208.67500000000001
20
-111.27500000000001
42
-0.41421356237309503
10
208.17499999999998
20
-111.77500000000002
10
195.17499999999998
20
-111.77499999999998
42
-0.41421356237309503
0
LWPOLYLINE
5
121
100
AcDbEntity
8
0
100
AcDbPolyline
90
8
70
1
43
0.0
10
207.67500000000001
20
-95.837000000000003
42
-0.41421356237309503
10
207.17500000000001
20
-96.337000000000018
10
193.17499999999998
20
-96.337000000000018
42
-0.41421356237309503
10
192.67499999999998
20
-95.837000000000003
10
192.67499999999998
20
-89.837000000000003
42
-0.41421356237309503
10
193.17499999999998
20
-89.337000000000003
10
207.17500000000001
20
-89.337000000000032
42
-0.41421356237309503
10
207.67499999999998
20
-89.837000000000003
0
LWPOLYLINE
5
122
100
AcDbEntity
8
0
100
AcDbPolyline
90
8
70
1
43
0.0
10
192.67499999999998
20
-119.71299999999999
10
192.67499999999998
20
-113.71299999999999
42
-0.41421356237309503
10
193.17499999999998
20
-113.21299999999999
10
207.17500000000001
20
-113.21300000000002
42
-0.41421356237309503
10
207.67499999999998
20
-113.71299999999999
10
207.67500000000001
20
-119.71299999999999
42
-0.41421356237309503
10
207.17500000000001
20
-120.21299999999999
10
193.17499999999998
20
-120.21299999999999
42
-0.41421356237309503
0
LWPOLYLINE
5
123
100
AcDbEntity
8
0
100
AcDbPolyline
90
8
70
1
43
0.0
10
189.125
20
-107.30000000000004
42
-0.41421356237309503
10
189.625
20
-107.80000000000001
10
189.62500000000003
20
-120.8
42
-0.41421356237309503
10
189.125
20
-121.30000000000001
10
176.125
20
-121.30000000000001
42
-0.41421356237309503
10
175.625
20
-120.8
10
175.625
20
-107.80000000000001
42
-0.41421356237309503
10
176.125
20
-107.30000000000001
0
LWPOLYLINE
5
124
100
AcDbEntity
8
0
100
AcDbPolyline
90
8
70
1
43
0.0
10
189.625
20
-101.75
10
189.625
20
-88.75
42
0.41421356237309503
10
189.125
20
-88.25
10
176.125
20
-88.25
42
0.41421356237309503
10
175.625
20
-88.75
10
175.625
20
-101.75
42
0.41421356237309503
10
176.125
20
-102.25000000000001
10
189.125
20
-102.25000000000001
42
0.41421356237309503
0
LWPOLYLINE
5
125
100
AcDbEntity
8
0
100
AcDbPolyline
90
8
70
1
43
0.0
10
170.57500000000002
20
-82.700000000000017
10
170.57500000000002
20
-69.700000000000003
42
0.41421356237309503
10
170.07499999999999
20
-69.200000000000003
10
157.07499999999999
20
-69.200000000000003
42
0.41421356237309503
10
156.57500000000002
20
-69.700000000000003
10
156.57500000000002
20
-82.700000000000017
42
0.41421356237309503
10
157.07499999999999
20
-83.200000000000017
10
170.07499999999999
20
-83.200000000000003
42
0.41421356237309503
0
LWPOLYLINE
5
126
100
AcDbEntity
8
0
100
AcDbPolyline
90
8
70
1
43
0.0
10
189.625
20
-82.700000000000017
42
-0.41421356237309503
10
189.125
20
-83.200000000000003
10
176.125
20
-83.200000000000017
42
-0.41421356237309503
10
175.625
20
-82.700000000000017
10
175.625
20
-69.700000000000003
42
-0.41421356237309503
10
176.125
20
-69.200000000000003
10
189.125
20
-69.200000000000031
42
-0.41421356237309503
10
189.625
20
-69.700000000000003
0
LWPOLYLINE
5
127
100
AcDbEntity
8
0
100
AcDbPolyline
90
8
70
1
43
0.0
10
151.52500000000001
20
-82.700000000000017
42
-0.41421356237309503
10
151.02499999999998
20
-83.200000000000017
10
138.02500000000001
20
-83.200000000000017
42
-0.41421356237309503
10
137.52500000000001
20
-82.700000000000017
10
137.52500000000001
20
-69.700000000000003
42
-0.41421356237309503
10
138.02500000000001
20
-69.200000000000003
10
151.02499999999998
20
-69.200000000000003
42
-0.41421356237309503
10
151.52500000000001
20
-69.700000000000003
0
LWPOLYLINE
5
128
100
AcDbEntity
8
0
100
AcDbPolyline
90
8
70
1
43
0.0
10
170.07499999999999
20
-88.25
42
-0.41421356237309503
10
170.57500000000002
20
-88.75
10
170.57500000000002
20
-101.75
42
-0.41421356237309503
10
170.07499999999999
20
-102.25000000000001
10
157.07499999999999
20
-102.25
42
-0.41421356237309503
10
156.57500000000002
20
-101.75
10
156.57500000000002
20
-88.75
42
-0.41421356237309503
10
157.07499999999999
20
-88.250000000000014
0
LWPOLYLINE
5
129
100
AcDbEntity
8
0
100
AcDbPolyline
90
8
70
1
43
0.0
10
151.02499999999998
20
-88.25
42
-0.41421356237309503
10
151.52500000000001
20
-88.75
10
151.52500000000001
20
-101.75
42
-0.41421356237309503
10
151.02499999999998
20
-102.25000000000001
10
138.02500000000001
20
-102.25000000000001
42
-0.41421356237309503
10
137.52500000000001
20
-101.75
10
137.52500000000001
20
-88.75
42
-0.41421356237309503
10
138.02500000000001
20
-88.25
0
LWPOLYLINE
5
130
100
AcDbEntity
8
0
100
AcDbPolyline
90
8
70
1
43
0.0
10
151.02499999999998
20
-107.30000000000001
42
-0.41421356237309503
10
151.52500000000001
20
-107.80000000000001
10
151.52500000000001
20
-120.8
42
-0.41421356237309503
10
151.02499999999998
20
-121.30000000000001
10
138.02500000000001
20
-121.30000000000001
42
-0.41421356237309503
10
137.52500000000001
20
-120.8
10
137.52500000000001
20
-107.80000000000001
42
-0.41421356237309503
10
138.02500000000001
20
-107.30000000000001
0
LWPOLYLINE
5
131
100
AcDbEntity
8
0
100
AcDbPolyline
90
8
70
1
43
0.0
10
170.07499999999999
20
-107.30000000000001
42
-0.41421356237309503
10
170.57500000000002
20
-107.80000000000001
10
170.57500000000002
20
-120.8
42
-0.41421356237309503
10
170.07499999999999
20
-121.30000000000001
10
157.07499999999999
20
-121.29999999999998
42
-0.41421356237309503
10
156.57500000000002
20
-120.8
10
156.57499999999999
20
-107.80000000000001
42
-0.41421356237309503
10
157.07499999999999
20
-107.30000000000001
0
LINE
5
132
100
AcDbEntity
8
0
100
AcDbLine
10
138.09999999999999
20
23.200000000000003
30
0
11
138.09999999999999
21
20
31
0
0
LINE
5
133
100
AcDbEntity
8
0
100
AcDbLine
10
139.09999999999999
20
23.200000000000003
30
0
11
138.09999999999999
21
23.200000000000003
31
0
0
LINE
5
134
100
AcDbEntity
8
0
100
AcDbLine
10
139.09999999999999
20
23.200000000000003
30
0
11
152.20000000000002
21
23.200000000000003
31
0
0
LINE
5
135
100
AcDbEntity
8
0
100
AcDbLine
10
208.10000000000002
20
23.200000000000003
30
0
11
153.19999999999999
21
23.200000000000003
31
0
0
LINE
5
136
100
AcDbEntity
8
0
100
AcDbLine
10
208.10000000000002
20
20
30
0
11
208.10000000000002
21
23.200000000000003
31
0
0
LINE
5
137
100
AcDbEntity
8
0
100
AcDbLine
10
152.20000000000002
20
23.200000000000003
30
0
11
153.19999999999999
21
23.200000000000003
31
0
0
ENDSEC
0
SECTION
2
OBJECTS
0
DICTIONARY
5
C
100
AcDbDictionary
3
ACAD_GROUP
350
D
3
ACAD_MLINESTYLE
350
17
0
DICTIONARY
5
D
100
AcDbDictionary
0
DICTIONARY
5
1A
330
C
100
AcDbDictionary
0
DICTIONARY
5
17
100
AcDbDictionary
0
ENDSEC
0
EOF
