M48
; DRILL file {KiCad (6.99.0-222-g367431f825)} date Fri 14 Jan 2022 12:46:21 AM CET
; FORMAT={-:-/ absolute / metric / decimal}
; #@! TF.CreationDate,2022-01-14T00:46:21+01:00
; #@! TF.GenerationSoftware,Kicad,Pcbnew,(6.99.0-222-g367431f825)
; #@! TF.FileFunction,NonPlated,1,2,NPTH
FMAT,2
METRIC
; #@! TA.AperFunction,NonPlated,NPTH,ComponentDrill
T1C0.650
; #@! TA.AperFunction,NonPlated,NPTH,ComponentDrill
T2C1.702
; #@! TA.AperFunction,NonPlated,NPTH,ComponentDrill
T3C3.048
; #@! TA.AperFunction,NonPlated,NPTH,ComponentDrill
T4C3.988
%
G90
G05
T1
X109.59Y-23.44
X115.37Y-23.44
T2
X104.6Y-51.74
X104.6Y-80.315
X104.6Y-99.365
X104.6Y-118.415
X104.6Y-137.465
X104.6Y-156.515
X114.76Y-51.74
X114.76Y-80.315
X114.76Y-99.365
X114.76Y-118.415
X114.76Y-137.465
X114.76Y-156.515
X123.65Y-51.74
X123.65Y-80.315
X123.65Y-99.365
X123.65Y-118.415
X123.65Y-137.465
X123.65Y-156.515
X133.81Y-51.74
X133.81Y-80.315
X133.81Y-99.365
X133.81Y-118.415
X133.81Y-137.465
X133.81Y-156.515
X142.7Y-51.74
X142.7Y-80.315
X142.7Y-99.365
X142.7Y-118.415
X142.7Y-137.465
X142.7Y-156.515
X152.86Y-51.74
X152.86Y-80.315
X152.86Y-99.365
X152.86Y-118.415
X152.86Y-137.465
X152.86Y-156.515
X161.75Y-51.74
X161.75Y-80.315
X161.75Y-99.365
X161.75Y-118.415
X166.83Y-141.91
X166.83Y-152.07
X171.91Y-51.74
X171.91Y-80.315
X171.91Y-99.365
X171.91Y-118.415
T3
X173.815Y-135.09
X173.815Y-158.89
T4
X109.68Y-51.74
X109.68Y-80.315
X109.68Y-99.365
X109.68Y-118.415
X109.68Y-137.465
X109.68Y-156.515
X128.73Y-51.74
X128.73Y-80.315
X128.73Y-99.365
X128.73Y-118.415
X128.73Y-137.465
X128.73Y-156.515
X147.78Y-51.74
X147.78Y-80.315
X147.78Y-99.365
X147.78Y-118.415
X147.78Y-137.465
X147.78Y-156.515
X158.575Y-135.09
X158.575Y-158.89
X166.83Y-51.74
X166.83Y-80.315
X166.83Y-99.365
X166.83Y-118.415
X166.83Y-146.99
T0
M30
