M48
; DRILL file {KiCad (6.99.0-222-g367431f825)} date Fri 14 Jan 2022 12:46:21 AM CET
; FORMAT={-:-/ absolute / metric / decimal}
; #@! TF.CreationDate,2022-01-14T00:46:21+01:00
; #@! TF.GenerationSoftware,Kicad,Pcbnew,(6.99.0-222-g367431f825)
; #@! TF.FileFunction,Plated,1,2,PTH
FMAT,2
METRIC
; #@! TA.AperFunction,Plated,PTH,ViaDrill
T1C0.400
; #@! TA.AperFunction,Plated,PTH,ComponentDrill
T2C0.600
; #@! TA.AperFunction,Plated,PTH,ComponentDrill
T3C0.920
; #@! TA.AperFunction,Plated,PTH,ComponentDrill
T4C1.499
%
G90
G05
T1
X103.627Y-31.342
X105.68Y-27.34
X109.38Y-36.24
X110.405Y-30.815
X111.03Y-34.74
X111.58Y-23.19
X112.332Y-34.492
X112.518Y-35.378
X113.28Y-22.74
X113.455Y-35.515
X114.605Y-35.615
X115.33Y-36.34
X117.654Y-30.264
X120.232Y-23.992
X120.48Y-34.74
X153.67Y-43.7
X154.54Y-42.69
X155.37Y-43.71
X156.03Y-70.82
X156.05Y-110.04
X156.08Y-107.99
X156.12Y-59.42
X156.24Y-42.75
X158.01Y-34.87
X158.84Y-144.27
X159.32Y-33.6
X160.07Y-149.69
X160.5Y-43.64
X161.48Y-42.97
X166.46Y-29.94
X171.0Y-54.45
T3
X109.09Y-26.83
X111.59Y-26.83
X113.59Y-26.83
X116.09Y-26.83
X129.61Y-26.82
X132.11Y-26.82
X134.11Y-26.82
X136.61Y-26.82
X145.02Y-26.83
X147.52Y-26.83
X149.52Y-26.83
X152.02Y-26.83
X160.455Y-26.815
X162.955Y-26.815
X164.955Y-26.815
X167.455Y-26.815
T4
X105.87Y-49.2
X105.87Y-77.775
X105.87Y-96.825
X105.87Y-115.875
X105.87Y-134.925
X105.87Y-153.975
X112.22Y-46.66
X112.22Y-75.235
X112.22Y-94.285
X112.22Y-113.335
X112.22Y-132.385
X112.22Y-151.435
X124.92Y-49.2
X124.92Y-77.775
X124.92Y-96.825
X124.92Y-115.875
X124.92Y-134.925
X124.92Y-153.975
X131.27Y-46.66
X131.27Y-75.235
X131.27Y-94.285
X131.27Y-113.335
X131.27Y-132.385
X131.27Y-151.435
X143.97Y-49.2
X143.97Y-77.775
X143.97Y-96.825
X143.97Y-115.875
X143.97Y-134.925
X143.97Y-153.975
X150.32Y-46.66
X150.32Y-75.235
X150.32Y-94.285
X150.32Y-113.335
X150.32Y-132.385
X150.32Y-151.435
X161.75Y-144.45
X163.02Y-49.2
X163.02Y-77.775
X163.02Y-96.825
X163.02Y-115.875
X164.29Y-150.8
X169.37Y-46.66
X169.37Y-75.235
X169.37Y-94.285
X169.37Y-113.335
T2
G00X106.19Y-26.13
M15
G01X106.19Y-25.13
M16
G05
G00X108.16Y-20.09
M15
G01X108.16Y-19.49
M16
G05
G00X108.16Y-24.52
M15
G01X108.16Y-23.42
M16
G05
G00X116.8Y-20.09
M15
G01X116.8Y-19.49
M16
G05
G00X116.8Y-24.52
M15
G01X116.8Y-23.42
M16
G05
G00X118.99Y-26.13
M15
G01X118.99Y-25.13
M16
G05
G00X126.71Y-26.12
M15
G01X126.71Y-25.12
M16
G05
G00X139.51Y-26.12
M15
G01X139.51Y-25.12
M16
G05
G00X142.12Y-26.13
M15
G01X142.12Y-25.13
M16
G05
G00X154.92Y-26.13
M15
G01X154.92Y-25.13
M16
G05
G00X157.555Y-26.115
M15
G01X157.555Y-25.115
M16
G05
G00X170.355Y-26.115
M15
G01X170.355Y-25.115
M16
G05
T0
M30
