%TF.GenerationSoftware,KiCad,Pcbnew,(6.99.0-222-g367431f825)*%
%TF.CreationDate,2022-01-14T00:46:19+01:00*%
%TF.ProjectId,usbhub-macropad,75736268-7562-42d6-9d61-63726f706164,rev?*%
%TF.SameCoordinates,Original*%
%TF.FileFunction,Soldermask,Top*%
%TF.FilePolarity,Negative*%
%FSLAX46Y46*%
G04 Gerber Fmt 4.6, Leading zero omitted, Abs format (unit mm)*
G04 Created by KiCad (PCBNEW (6.99.0-222-g367431f825)) date 2022-01-14 00:46:19*
%MOMM*%
%LPD*%
G01*
G04 APERTURE LIST*
%ADD10R,1.428000X1.428000*%
%ADD11C,1.428000*%
%ADD12O,1.108000X2.216000*%
%ADD13C,0.650000*%
%ADD14R,0.600000X1.450000*%
%ADD15R,0.300000X1.450000*%
%ADD16O,1.000000X2.100000*%
%ADD17O,1.000000X1.600000*%
%ADD18C,1.701800*%
%ADD19C,3.987800*%
%ADD20C,2.286000*%
%ADD21C,3.048000*%
G04 APERTURE END LIST*
D10*
%TO.C,J4*%
X116090000Y-26830000D03*
D11*
X113590000Y-26830000D03*
X111590000Y-26830000D03*
X109090000Y-26830000D03*
D12*
X118990000Y-25630000D03*
X106190000Y-25630000D03*
%TD*%
D10*
%TO.C,J3*%
X167455000Y-26815000D03*
D11*
X164955000Y-26815000D03*
X162955000Y-26815000D03*
X160455000Y-26815000D03*
D12*
X170355000Y-25615000D03*
X157555000Y-25615000D03*
%TD*%
D13*
%TO.C,J5*%
X115370000Y-23440000D03*
X109590000Y-23440000D03*
D14*
X115730000Y-24885000D03*
X114930000Y-24885000D03*
D15*
X113730000Y-24885000D03*
X112730000Y-24885000D03*
X112230000Y-24885000D03*
X111230000Y-24885000D03*
D14*
X110030000Y-24885000D03*
X109230000Y-24885000D03*
X109230000Y-24885000D03*
X110030000Y-24885000D03*
D15*
X110730000Y-24885000D03*
X111730000Y-24885000D03*
X113230000Y-24885000D03*
X114230000Y-24885000D03*
D14*
X114930000Y-24885000D03*
X115730000Y-24885000D03*
D16*
X116800000Y-23970000D03*
D17*
X116800000Y-19790000D03*
D16*
X108160000Y-23970000D03*
D17*
X108160000Y-19790000D03*
%TD*%
D18*
%TO.C,K0\u002C2*%
X142700000Y-51740000D03*
D19*
X147780000Y-51740000D03*
D18*
X152860000Y-51740000D03*
D20*
X150320000Y-46660000D03*
X143970000Y-49200000D03*
%TD*%
D18*
%TO.C,K0\u002C0*%
X104600000Y-51740000D03*
D19*
X109680000Y-51740000D03*
D18*
X114760000Y-51740000D03*
D20*
X112220000Y-46660000D03*
X105870000Y-49200000D03*
%TD*%
D18*
%TO.C,K0\u002C3*%
X161750000Y-51740000D03*
D19*
X166830000Y-51740000D03*
D18*
X171910000Y-51740000D03*
D20*
X169370000Y-46660000D03*
X163020000Y-49200000D03*
%TD*%
D18*
%TO.C,K0\u002C1*%
X123650000Y-51740000D03*
D19*
X128730000Y-51740000D03*
D18*
X133810000Y-51740000D03*
D20*
X131270000Y-46660000D03*
X124920000Y-49200000D03*
%TD*%
D18*
%TO.C,K1\u002C3*%
X161750000Y-80315000D03*
D19*
X166830000Y-80315000D03*
D18*
X171910000Y-80315000D03*
D20*
X169370000Y-75235000D03*
X163020000Y-77775000D03*
%TD*%
D18*
%TO.C,K1\u002C2*%
X142700000Y-80315000D03*
D19*
X147780000Y-80315000D03*
D18*
X152860000Y-80315000D03*
D20*
X150320000Y-75235000D03*
X143970000Y-77775000D03*
%TD*%
D18*
%TO.C,K1\u002C1*%
X123650000Y-80315000D03*
D19*
X128730000Y-80315000D03*
D18*
X133810000Y-80315000D03*
D20*
X131270000Y-75235000D03*
X124920000Y-77775000D03*
%TD*%
D18*
%TO.C,K1\u002C0*%
X104600000Y-80315000D03*
D19*
X109680000Y-80315000D03*
D18*
X114760000Y-80315000D03*
D20*
X112220000Y-75235000D03*
X105870000Y-77775000D03*
%TD*%
D18*
%TO.C,K2\u002C2*%
X142700000Y-99365000D03*
D19*
X147780000Y-99365000D03*
D18*
X152860000Y-99365000D03*
D20*
X150320000Y-94285000D03*
X143970000Y-96825000D03*
%TD*%
D18*
%TO.C,K2\u002C1*%
X123650000Y-99365000D03*
D19*
X128730000Y-99365000D03*
D18*
X133810000Y-99365000D03*
D20*
X131270000Y-94285000D03*
X124920000Y-96825000D03*
%TD*%
D18*
%TO.C,K2\u002C0*%
X104600000Y-99365000D03*
D19*
X109680000Y-99365000D03*
D18*
X114760000Y-99365000D03*
D20*
X112220000Y-94285000D03*
X105870000Y-96825000D03*
%TD*%
D18*
%TO.C,K2\u002C3*%
X161750000Y-99365000D03*
D19*
X166830000Y-99365000D03*
D18*
X171910000Y-99365000D03*
D20*
X169370000Y-94285000D03*
X163020000Y-96825000D03*
%TD*%
D18*
%TO.C,K3\u002C1*%
X123650000Y-118415000D03*
D19*
X128730000Y-118415000D03*
D18*
X133810000Y-118415000D03*
D20*
X131270000Y-113335000D03*
X124920000Y-115875000D03*
%TD*%
D18*
%TO.C,K3\u002C3*%
X161750000Y-118415000D03*
D19*
X166830000Y-118415000D03*
D18*
X171910000Y-118415000D03*
D20*
X169370000Y-113335000D03*
X163020000Y-115875000D03*
%TD*%
D18*
%TO.C,K3\u002C0*%
X104600000Y-118415000D03*
D19*
X109680000Y-118415000D03*
D18*
X114760000Y-118415000D03*
D20*
X112220000Y-113335000D03*
X105870000Y-115875000D03*
%TD*%
D18*
%TO.C,K3\u002C2*%
X142700000Y-118415000D03*
D19*
X147780000Y-118415000D03*
D18*
X152860000Y-118415000D03*
D20*
X150320000Y-113335000D03*
X143970000Y-115875000D03*
%TD*%
D18*
%TO.C,K4\u002C2*%
X142700000Y-137465000D03*
D19*
X147780000Y-137465000D03*
D18*
X152860000Y-137465000D03*
D20*
X150320000Y-132385000D03*
X143970000Y-134925000D03*
%TD*%
D18*
%TO.C,K4\u002C3*%
X166830000Y-152070000D03*
D19*
X166830000Y-146990000D03*
D18*
X166830000Y-141910000D03*
D20*
X161750000Y-144450000D03*
X164290000Y-150800000D03*
%TD*%
D18*
%TO.C,K4\u002C1*%
X123650000Y-137465000D03*
D19*
X128730000Y-137465000D03*
D18*
X133810000Y-137465000D03*
D20*
X131270000Y-132385000D03*
X124920000Y-134925000D03*
%TD*%
D18*
%TO.C,K4\u002C0*%
X104600000Y-137465000D03*
D19*
X109680000Y-137465000D03*
D18*
X114760000Y-137465000D03*
D20*
X112220000Y-132385000D03*
X105870000Y-134925000D03*
%TD*%
D18*
%TO.C,K5\u002C1*%
X123650000Y-156515000D03*
D19*
X128730000Y-156515000D03*
D18*
X133810000Y-156515000D03*
D20*
X131270000Y-151435000D03*
X124920000Y-153975000D03*
%TD*%
D18*
%TO.C,K5\u002C2*%
X142700000Y-156515000D03*
D19*
X147780000Y-156515000D03*
D18*
X152860000Y-156515000D03*
D20*
X150320000Y-151435000D03*
X143970000Y-153975000D03*
%TD*%
D21*
%TO.C,H1*%
X173815000Y-135090000D03*
D19*
X158575000Y-135090000D03*
D21*
X173815000Y-158890000D03*
D19*
X158575000Y-158890000D03*
%TD*%
D10*
%TO.C,J1*%
X136610000Y-26820000D03*
D11*
X134110000Y-26820000D03*
X132110000Y-26820000D03*
X129610000Y-26820000D03*
D12*
X139510000Y-25620000D03*
X126710000Y-25620000D03*
%TD*%
D10*
%TO.C,J2*%
X152020000Y-26830000D03*
D11*
X149520000Y-26830000D03*
X147520000Y-26830000D03*
X145020000Y-26830000D03*
D12*
X154920000Y-25630000D03*
X142120000Y-25630000D03*
%TD*%
D18*
%TO.C,K5\u002C0*%
X104600000Y-156515000D03*
D19*
X109680000Y-156515000D03*
D18*
X114760000Y-156515000D03*
D20*
X112220000Y-151435000D03*
X105870000Y-153975000D03*
%TD*%
M02*
