%TF.GenerationSoftware,KiCad,Pcbnew,(6.99.0-222-g367431f825)*%
%TF.CreationDate,2022-01-14T00:46:19+01:00*%
%TF.ProjectId,usbhub-macropad,75736268-7562-42d6-9d61-63726f706164,rev?*%
%TF.SameCoordinates,Original*%
%TF.FileFunction,Soldermask,Bot*%
%TF.FilePolarity,Negative*%
%FSLAX46Y46*%
G04 Gerber Fmt 4.6, Leading zero omitted, Abs format (unit mm)*
G04 Created by KiCad (PCBNEW (6.99.0-222-g367431f825)) date 2022-01-14 00:46:19*
%MOMM*%
%LPD*%
G01*
G04 APERTURE LIST*
G04 Aperture macros list*
%AMRoundRect*
0 Rectangle with rounded corners*
0 $1 Rounding radius*
0 $2 $3 $4 $5 $6 $7 $8 $9 X,Y pos of 4 corners*
0 Add a 4 corners polygon primitive as box body*
4,1,4,$2,$3,$4,$5,$6,$7,$8,$9,$2,$3,0*
0 Add four circle primitives for the rounded corners*
1,1,$1+$1,$2,$3*
1,1,$1+$1,$4,$5*
1,1,$1+$1,$6,$7*
1,1,$1+$1,$8,$9*
0 Add four rect primitives between the rounded corners*
20,1,$1+$1,$2,$3,$4,$5,0*
20,1,$1+$1,$4,$5,$6,$7,0*
20,1,$1+$1,$6,$7,$8,$9,0*
20,1,$1+$1,$8,$9,$2,$3,0*%
%AMRotRect*
0 Rectangle, with rotation*
0 The origin of the aperture is its center*
0 $1 length*
0 $2 width*
0 $3 Rotation angle, in degrees counterclockwise*
0 Add horizontal line*
21,1,$1,$2,0,0,$3*%
G04 Aperture macros list end*
%ADD10R,1.428000X1.428000*%
%ADD11C,1.428000*%
%ADD12O,1.108000X2.216000*%
%ADD13C,0.650000*%
%ADD14O,1.000000X2.100000*%
%ADD15O,1.000000X1.600000*%
%ADD16C,1.701800*%
%ADD17C,3.987800*%
%ADD18C,2.286000*%
%ADD19C,3.048000*%
%ADD20R,0.400000X1.200000*%
%ADD21RoundRect,0.250000X-0.375000X-0.625000X0.375000X-0.625000X0.375000X0.625000X-0.375000X0.625000X0*%
%ADD22RoundRect,0.250000X-0.475000X0.250000X-0.475000X-0.250000X0.475000X-0.250000X0.475000X0.250000X0*%
%ADD23R,1.400000X1.200000*%
%ADD24R,1.200000X1.400000*%
%ADD25R,1.700000X1.000000*%
%ADD26R,1.000000X1.700000*%
%ADD27RoundRect,0.249998X0.262502X0.450002X-0.262502X0.450002X-0.262502X-0.450002X0.262502X-0.450002X0*%
%ADD28RoundRect,0.249998X-0.262502X-0.450002X0.262502X-0.450002X0.262502X0.450002X-0.262502X0.450002X0*%
%ADD29RoundRect,0.250000X0.159099X-0.512652X0.512652X-0.159099X-0.159099X0.512652X-0.512652X0.159099X0*%
%ADD30RoundRect,0.249998X-0.132583X0.503816X-0.503816X0.132583X0.132583X-0.503816X0.503816X-0.132583X0*%
%ADD31RotRect,1.400000X1.200000X315.000000*%
%ADD32RoundRect,0.250000X-0.250000X-0.475000X0.250000X-0.475000X0.250000X0.475000X-0.250000X0.475000X0*%
%ADD33RoundRect,0.249998X-0.503816X-0.132583X-0.132583X-0.503816X0.503816X0.132583X0.132583X0.503816X0*%
%ADD34RotRect,1.600000X0.550000X225.000000*%
%ADD35RotRect,1.600000X0.550000X135.000000*%
G04 APERTURE END LIST*
D10*
%TO.C,J4*%
X116090000Y-26830000D03*
D11*
X113590000Y-26830000D03*
X111590000Y-26830000D03*
X109090000Y-26830000D03*
D12*
X118990000Y-25630000D03*
X106190000Y-25630000D03*
%TD*%
D10*
%TO.C,J3*%
X167455000Y-26815000D03*
D11*
X164955000Y-26815000D03*
X162955000Y-26815000D03*
X160455000Y-26815000D03*
D12*
X170355000Y-25615000D03*
X157555000Y-25615000D03*
%TD*%
D13*
%TO.C,J5*%
X115370000Y-23440000D03*
X109590000Y-23440000D03*
D14*
X116800000Y-23970000D03*
D15*
X116800000Y-19790000D03*
D14*
X108160000Y-23970000D03*
D15*
X108160000Y-19790000D03*
%TD*%
D16*
%TO.C,K0\u002C2*%
X142700000Y-51740000D03*
D17*
X147780000Y-51740000D03*
D16*
X152860000Y-51740000D03*
D18*
X150320000Y-46660000D03*
X143970000Y-49200000D03*
%TD*%
D16*
%TO.C,K0\u002C0*%
X104600000Y-51740000D03*
D17*
X109680000Y-51740000D03*
D16*
X114760000Y-51740000D03*
D18*
X112220000Y-46660000D03*
X105870000Y-49200000D03*
%TD*%
D16*
%TO.C,K0\u002C3*%
X161750000Y-51740000D03*
D17*
X166830000Y-51740000D03*
D16*
X171910000Y-51740000D03*
D18*
X169370000Y-46660000D03*
X163020000Y-49200000D03*
%TD*%
D16*
%TO.C,K0\u002C1*%
X123650000Y-51740000D03*
D17*
X128730000Y-51740000D03*
D16*
X133810000Y-51740000D03*
D18*
X131270000Y-46660000D03*
X124920000Y-49200000D03*
%TD*%
D16*
%TO.C,K1\u002C3*%
X161750000Y-80315000D03*
D17*
X166830000Y-80315000D03*
D16*
X171910000Y-80315000D03*
D18*
X169370000Y-75235000D03*
X163020000Y-77775000D03*
%TD*%
D16*
%TO.C,K1\u002C2*%
X142700000Y-80315000D03*
D17*
X147780000Y-80315000D03*
D16*
X152860000Y-80315000D03*
D18*
X150320000Y-75235000D03*
X143970000Y-77775000D03*
%TD*%
D16*
%TO.C,K1\u002C1*%
X123650000Y-80315000D03*
D17*
X128730000Y-80315000D03*
D16*
X133810000Y-80315000D03*
D18*
X131270000Y-75235000D03*
X124920000Y-77775000D03*
%TD*%
D16*
%TO.C,K1\u002C0*%
X104600000Y-80315000D03*
D17*
X109680000Y-80315000D03*
D16*
X114760000Y-80315000D03*
D18*
X112220000Y-75235000D03*
X105870000Y-77775000D03*
%TD*%
D16*
%TO.C,K2\u002C2*%
X142700000Y-99365000D03*
D17*
X147780000Y-99365000D03*
D16*
X152860000Y-99365000D03*
D18*
X150320000Y-94285000D03*
X143970000Y-96825000D03*
%TD*%
D16*
%TO.C,K2\u002C1*%
X123650000Y-99365000D03*
D17*
X128730000Y-99365000D03*
D16*
X133810000Y-99365000D03*
D18*
X131270000Y-94285000D03*
X124920000Y-96825000D03*
%TD*%
D16*
%TO.C,K2\u002C0*%
X104600000Y-99365000D03*
D17*
X109680000Y-99365000D03*
D16*
X114760000Y-99365000D03*
D18*
X112220000Y-94285000D03*
X105870000Y-96825000D03*
%TD*%
D16*
%TO.C,K2\u002C3*%
X161750000Y-99365000D03*
D17*
X166830000Y-99365000D03*
D16*
X171910000Y-99365000D03*
D18*
X169370000Y-94285000D03*
X163020000Y-96825000D03*
%TD*%
D16*
%TO.C,K3\u002C1*%
X123650000Y-118415000D03*
D17*
X128730000Y-118415000D03*
D16*
X133810000Y-118415000D03*
D18*
X131270000Y-113335000D03*
X124920000Y-115875000D03*
%TD*%
D16*
%TO.C,K3\u002C3*%
X161750000Y-118415000D03*
D17*
X166830000Y-118415000D03*
D16*
X171910000Y-118415000D03*
D18*
X169370000Y-113335000D03*
X163020000Y-115875000D03*
%TD*%
D16*
%TO.C,K3\u002C0*%
X104600000Y-118415000D03*
D17*
X109680000Y-118415000D03*
D16*
X114760000Y-118415000D03*
D18*
X112220000Y-113335000D03*
X105870000Y-115875000D03*
%TD*%
D16*
%TO.C,K3\u002C2*%
X142700000Y-118415000D03*
D17*
X147780000Y-118415000D03*
D16*
X152860000Y-118415000D03*
D18*
X150320000Y-113335000D03*
X143970000Y-115875000D03*
%TD*%
D16*
%TO.C,K4\u002C2*%
X142700000Y-137465000D03*
D17*
X147780000Y-137465000D03*
D16*
X152860000Y-137465000D03*
D18*
X150320000Y-132385000D03*
X143970000Y-134925000D03*
%TD*%
D16*
%TO.C,K4\u002C3*%
X166830000Y-152070000D03*
D17*
X166830000Y-146990000D03*
D16*
X166830000Y-141910000D03*
D18*
X161750000Y-144450000D03*
X164290000Y-150800000D03*
%TD*%
D16*
%TO.C,K4\u002C1*%
X123650000Y-137465000D03*
D17*
X128730000Y-137465000D03*
D16*
X133810000Y-137465000D03*
D18*
X131270000Y-132385000D03*
X124920000Y-134925000D03*
%TD*%
D16*
%TO.C,K4\u002C0*%
X104600000Y-137465000D03*
D17*
X109680000Y-137465000D03*
D16*
X114760000Y-137465000D03*
D18*
X112220000Y-132385000D03*
X105870000Y-134925000D03*
%TD*%
D16*
%TO.C,K5\u002C1*%
X123650000Y-156515000D03*
D17*
X128730000Y-156515000D03*
D16*
X133810000Y-156515000D03*
D18*
X131270000Y-151435000D03*
X124920000Y-153975000D03*
%TD*%
D16*
%TO.C,K5\u002C2*%
X142700000Y-156515000D03*
D17*
X147780000Y-156515000D03*
D16*
X152860000Y-156515000D03*
D18*
X150320000Y-151435000D03*
X143970000Y-153975000D03*
%TD*%
D19*
%TO.C,H1*%
X173815000Y-135090000D03*
D17*
X158575000Y-135090000D03*
D19*
X173815000Y-158890000D03*
D17*
X158575000Y-158890000D03*
%TD*%
D10*
%TO.C,J1*%
X136610000Y-26820000D03*
D11*
X134110000Y-26820000D03*
X132110000Y-26820000D03*
X129610000Y-26820000D03*
D12*
X139510000Y-25620000D03*
X126710000Y-25620000D03*
%TD*%
D10*
%TO.C,J2*%
X152020000Y-26830000D03*
D11*
X149520000Y-26830000D03*
X147520000Y-26830000D03*
X145020000Y-26830000D03*
D12*
X154920000Y-25630000D03*
X142120000Y-25630000D03*
%TD*%
D16*
%TO.C,K5\u002C0*%
X104600000Y-156515000D03*
D17*
X109680000Y-156515000D03*
D16*
X114760000Y-156515000D03*
D18*
X112220000Y-151435000D03*
X105870000Y-153975000D03*
%TD*%
D20*
%TO.C,U1*%
X115927500Y-37820000D03*
X115292500Y-37820000D03*
X114657500Y-37820000D03*
X114022500Y-37820000D03*
X113387500Y-37820000D03*
X112752500Y-37820000D03*
X112117500Y-37820000D03*
X111482500Y-37820000D03*
X110847500Y-37820000D03*
X110212500Y-37820000D03*
X109577500Y-37820000D03*
X108942500Y-37820000D03*
X108307500Y-37820000D03*
X107672500Y-37820000D03*
X107672500Y-32620000D03*
X108307500Y-32620000D03*
X108942500Y-32620000D03*
X109577500Y-32620000D03*
X110212500Y-32620000D03*
X110847500Y-32620000D03*
X111482500Y-32620000D03*
X112117500Y-32620000D03*
X112752500Y-32620000D03*
X113387500Y-32620000D03*
X114022500Y-32620000D03*
X114657500Y-32620000D03*
X115292500Y-32620000D03*
X115927500Y-32620000D03*
%TD*%
D21*
%TO.C,F1*%
X113280000Y-29415000D03*
X116080000Y-29415000D03*
%TD*%
D22*
%TO.C,C6*%
X139420000Y-31190000D03*
X139420000Y-33090000D03*
%TD*%
%TO.C,C7*%
X134980000Y-31170000D03*
X134980000Y-33070000D03*
%TD*%
D23*
%TO.C,D0\u002C0*%
X119205000Y-58202500D03*
X119205000Y-54802500D03*
%TD*%
%TO.C,D0\u002C3*%
X159686250Y-58202500D03*
X159686250Y-54802500D03*
%TD*%
%TO.C,D0\u002C2*%
X154923750Y-58202500D03*
X154923750Y-54802500D03*
%TD*%
%TO.C,D0\u002C1*%
X138255000Y-58202500D03*
X138255000Y-54802500D03*
%TD*%
%TO.C,D1\u002C3*%
X159686250Y-73852500D03*
X159686250Y-77252500D03*
%TD*%
%TO.C,D1\u002C1*%
X138255000Y-73852500D03*
X138255000Y-77252500D03*
%TD*%
%TO.C,D1\u002C0*%
X119205000Y-73852500D03*
X119205000Y-77252500D03*
%TD*%
%TO.C,D2\u002C3*%
X159686250Y-105827500D03*
X159686250Y-102427500D03*
%TD*%
%TO.C,D2\u002C1*%
X138255000Y-105827500D03*
X138255000Y-102427500D03*
%TD*%
%TO.C,D2\u002C0*%
X119205000Y-105827500D03*
X119205000Y-102427500D03*
%TD*%
%TO.C,D2\u002C2*%
X154923750Y-105827500D03*
X154923750Y-102427500D03*
%TD*%
%TO.C,D3\u002C0*%
X119205000Y-111952500D03*
X119205000Y-115352500D03*
%TD*%
%TO.C,D3\u002C3*%
X159686250Y-111952500D03*
X159686250Y-115352500D03*
%TD*%
%TO.C,D3\u002C2*%
X154923750Y-111952500D03*
X154923750Y-115352500D03*
%TD*%
%TO.C,D3\u002C1*%
X138255000Y-111952500D03*
X138255000Y-115352500D03*
%TD*%
%TO.C,D4\u002C1*%
X138255000Y-143927500D03*
X138255000Y-140527500D03*
%TD*%
%TO.C,D4\u002C2*%
X157305000Y-143927500D03*
X157305000Y-140527500D03*
%TD*%
D24*
%TO.C,D4\u002C3*%
X158840000Y-147560000D03*
X162240000Y-147560000D03*
%TD*%
D23*
%TO.C,D5\u002C0*%
X119205000Y-150052500D03*
X119205000Y-153452500D03*
%TD*%
%TO.C,D5\u002C1*%
X138255000Y-150052500D03*
X138255000Y-153452500D03*
%TD*%
%TO.C,D5\u002C2*%
X157310000Y-150680000D03*
X157310000Y-154080000D03*
%TD*%
D25*
%TO.C,LED0\u002C0*%
X106930000Y-55802500D03*
X106930000Y-57202500D03*
X112430000Y-57202500D03*
X112430000Y-55802500D03*
%TD*%
%TO.C,LED0\u002C1*%
X125980000Y-55802500D03*
X125980000Y-57202500D03*
X131480000Y-57202500D03*
X131480000Y-55802500D03*
%TD*%
%TO.C,LED0\u002C2*%
X145030000Y-55802500D03*
X145030000Y-57202500D03*
X150530000Y-57202500D03*
X150530000Y-55802500D03*
%TD*%
%TO.C,LED0\u002C3*%
X164080000Y-55802500D03*
X164080000Y-57202500D03*
X169580000Y-57202500D03*
X169580000Y-55802500D03*
%TD*%
%TO.C,LED1\u002C0*%
X112430000Y-85777500D03*
X112430000Y-84377500D03*
X106930000Y-84377500D03*
X106930000Y-85777500D03*
%TD*%
%TO.C,LED1\u002C1*%
X131480000Y-85777500D03*
X131480000Y-84377500D03*
X125980000Y-84377500D03*
X125980000Y-85777500D03*
%TD*%
%TO.C,LED1\u002C2*%
X150530000Y-85777500D03*
X150530000Y-84377500D03*
X145030000Y-84377500D03*
X145030000Y-85777500D03*
%TD*%
%TO.C,LED2\u002C0*%
X164080000Y-103427500D03*
X164080000Y-104827500D03*
X169580000Y-104827500D03*
X169580000Y-103427500D03*
%TD*%
%TO.C,LED2\u002C1*%
X145030000Y-103427500D03*
X145030000Y-104827500D03*
X150530000Y-104827500D03*
X150530000Y-103427500D03*
%TD*%
%TO.C,LED2\u002C2*%
X125980000Y-103427500D03*
X125980000Y-104827500D03*
X131480000Y-104827500D03*
X131480000Y-103427500D03*
%TD*%
%TO.C,LED2\u002C3*%
X106930000Y-103427500D03*
X106930000Y-104827500D03*
X112430000Y-104827500D03*
X112430000Y-103427500D03*
%TD*%
%TO.C,LED3\u002C3*%
X169580000Y-123877500D03*
X169580000Y-122477500D03*
X164080000Y-122477500D03*
X164080000Y-123877500D03*
%TD*%
%TO.C,LED3\u002C0*%
X112430000Y-123877500D03*
X112430000Y-122477500D03*
X106930000Y-122477500D03*
X106930000Y-123877500D03*
%TD*%
%TO.C,LED3\u002C1*%
X131480000Y-123877500D03*
X131480000Y-122477500D03*
X125980000Y-122477500D03*
X125980000Y-123877500D03*
%TD*%
%TO.C,LED3\u002C2*%
X150530000Y-123877500D03*
X150530000Y-122477500D03*
X145030000Y-122477500D03*
X145030000Y-123877500D03*
%TD*%
D26*
%TO.C,LED4\u002C0*%
X170892500Y-149740000D03*
X172292500Y-149740000D03*
X172292500Y-144240000D03*
X170892500Y-144240000D03*
%TD*%
D25*
%TO.C,LED4\u002C1*%
X145030000Y-141527500D03*
X145030000Y-142927500D03*
X150530000Y-142927500D03*
X150530000Y-141527500D03*
%TD*%
%TO.C,LED4\u002C2*%
X125980000Y-141527500D03*
X125980000Y-142927500D03*
X131480000Y-142927500D03*
X131480000Y-141527500D03*
%TD*%
%TO.C,LED4\u002C3*%
X106930000Y-141527500D03*
X106930000Y-142927500D03*
X112430000Y-142927500D03*
X112430000Y-141527500D03*
%TD*%
%TO.C,LED5\u002C0*%
X112430000Y-161977500D03*
X112430000Y-160577500D03*
X106930000Y-160577500D03*
X106930000Y-161977500D03*
%TD*%
%TO.C,LED5\u002C1*%
X131480000Y-161977500D03*
X131480000Y-160577500D03*
X125980000Y-160577500D03*
X125980000Y-161977500D03*
%TD*%
%TO.C,LED5\u002C2*%
X150530000Y-161977500D03*
X150530000Y-160577500D03*
X145030000Y-160577500D03*
X145030000Y-161977500D03*
%TD*%
D27*
%TO.C,R2*%
X105442500Y-38040000D03*
X103617500Y-38040000D03*
%TD*%
D28*
%TO.C,R3*%
X118407500Y-28810000D03*
X120232500Y-28810000D03*
%TD*%
D27*
%TO.C,R4*%
X107092500Y-28850000D03*
X105267500Y-28850000D03*
%TD*%
D25*
%TO.C,SW1*%
X141330000Y-36790000D03*
X135030000Y-36790000D03*
X141330000Y-40590000D03*
X135030000Y-40590000D03*
%TD*%
D22*
%TO.C,C5*%
X137180000Y-31180000D03*
X137180000Y-33080000D03*
%TD*%
D25*
%TO.C,LED1\u002C3*%
X169580000Y-85777500D03*
X169580000Y-84377500D03*
X164080000Y-84377500D03*
X164080000Y-85777500D03*
%TD*%
D29*
%TO.C,C3*%
X167368249Y-31801751D03*
X168711751Y-30458249D03*
%TD*%
%TO.C,C4*%
X168818249Y-33251751D03*
X170161751Y-31908249D03*
%TD*%
D28*
%TO.C,R8*%
X144107500Y-30810000D03*
X145932500Y-30810000D03*
%TD*%
D30*
%TO.C,R10*%
X164150000Y-40330000D03*
X162859530Y-41620470D03*
%TD*%
D31*
%TO.C,Y2*%
X163293223Y-29281142D03*
X164848858Y-30836777D03*
X163646777Y-32038858D03*
X162091142Y-30483223D03*
%TD*%
D23*
%TO.C,D1\u002C2*%
X154923750Y-73852500D03*
X154923750Y-77252500D03*
%TD*%
%TO.C,D4\u002C0*%
X119205000Y-143927500D03*
X119205000Y-140527500D03*
%TD*%
D32*
%TO.C,C1*%
X103580000Y-40240000D03*
X105480000Y-40240000D03*
%TD*%
D29*
%TO.C,C8*%
X150868249Y-33861751D03*
X152211751Y-32518249D03*
%TD*%
D33*
%TO.C,R9*%
X150254765Y-37884765D03*
X151545235Y-39175235D03*
%TD*%
D34*
%TO.C,U2*%
X159245305Y-31424897D03*
X159810990Y-31990583D03*
X160376676Y-32556268D03*
X160942361Y-33121953D03*
X161508047Y-33687639D03*
X162073732Y-34253324D03*
X162639417Y-34819010D03*
X163205103Y-35384695D03*
D35*
X163205103Y-37435305D03*
X162639417Y-38000990D03*
X162073732Y-38566676D03*
X161508047Y-39132361D03*
X160942361Y-39698047D03*
X160376676Y-40263732D03*
X159810990Y-40829417D03*
X159245305Y-41395103D03*
D34*
X157194695Y-41395103D03*
X156629010Y-40829417D03*
X156063324Y-40263732D03*
X155497639Y-39698047D03*
X154931953Y-39132361D03*
X154366268Y-38566676D03*
X153800583Y-38000990D03*
X153234897Y-37435305D03*
D35*
X153234897Y-35384695D03*
X153800583Y-34819010D03*
X154366268Y-34253324D03*
X154931953Y-33687639D03*
X155497639Y-33121953D03*
X156063324Y-32556268D03*
X156629010Y-31990583D03*
X157194695Y-31424897D03*
%TD*%
D32*
%TO.C,C2*%
X103590000Y-35990000D03*
X105490000Y-35990000D03*
%TD*%
D27*
%TO.C,R1*%
X105452500Y-32860000D03*
X103627500Y-32860000D03*
%TD*%
%TO.C,R7*%
X145932500Y-32850000D03*
X144107500Y-32850000D03*
%TD*%
D24*
%TO.C,Y1*%
X117480000Y-39840000D03*
X117480000Y-42040000D03*
X115780000Y-42040000D03*
X115780000Y-39840000D03*
%TD*%
M02*
